<svg xmlns="http://www.w3.org/2000/svg" width="33.578" height="38.205" viewBox="0 0 33.578 38.205">
  <g id="Grupo_1114" data-name="Grupo 1114" transform="translate(-68.629 -375.806)">
    <path id="Trazado_1074" data-name="Trazado 1074" d="M81.2,394.72a8,8,0,0,0,7.792.425,1.119,1.119,0,1,0-.935-2.033,5.8,5.8,0,0,1-5.649-.277,5.6,5.6,0,1,1,8.605-4.717,1.119,1.119,0,0,1-2.238.017v-.017a3.363,3.363,0,1,0-1.12,2.5,3.357,3.357,0,0,0,5.6-2.5,7.835,7.835,0,1,0-12.052,6.6Zm4.217-5.482a1.12,1.12,0,1,1,1.111-1.248,1.176,1.176,0,0,0-.008.308A1.119,1.119,0,0,1,85.418,389.238Z" fill="#f8f8f8"/>
    <path id="Trazado_1075" data-name="Trazado 1075" d="M102.207,390.5a1.125,1.125,0,0,0-.328-.789l-4.149-4.15v-8.64a1.119,1.119,0,0,0-1.119-1.119H74.225a1.119,1.119,0,0,0-1.119,1.119v8.64l-4.149,4.15-.011.012a1.12,1.12,0,0,0-.317.777v20.149a3.361,3.361,0,0,0,3.358,3.358H98.849a3.361,3.361,0,0,0,3.358-3.358V390.5Zm-2.7,0-1.775,1.775v-3.55Zm-4.013-12.461v7.984h0v8.491l-6.06,6.06H81.4l-6.06-6.06v-8.491h0v-7.984ZM73.106,392.281l-1.775-1.775,1.775-1.775ZM70.867,410.19V393.208l8.491,8.491Zm1.583,1.582,8.954-8.954h8.028l8.954,8.954Zm27.519-1.582L91.478,401.7l8.491-8.491Z" fill="#f8f8f8"/>
  </g>
</svg>
