<svg xmlns="http://www.w3.org/2000/svg" width="38.783" height="38.785" viewBox="0 0 38.783 38.785">
  <path id="Trazado_1071" data-name="Trazado 1071" d="M103.812,156.487l-4.821-4.821a3.414,3.414,0,0,0-4.822,0l-2.191,2.191a2.586,2.586,0,0,1-3.652,0l-9.5-9.507a2.583,2.583,0,0,1,0-3.653l2.192-2.192a3.407,3.407,0,0,0,0-4.822L76.2,128.879a3.41,3.41,0,0,0-4.817,0l-1.757,1.742a12.306,12.306,0,0,0,0,17.386l15.051,15.059a12.287,12.287,0,0,0,17.386,0l1.753-1.753A3.412,3.412,0,0,0,103.812,156.487Zm-6.428-3.214,4.821,4.821a1.139,1.139,0,0,1,0,1.608l-.8.8-6.429-6.428.8-.8A1.138,1.138,0,0,1,97.384,153.273ZM74.591,130.487l4.82,4.805a1.136,1.136,0,0,1,0,1.607l-.8.8-6.424-6.425.8-.792A1.139,1.139,0,0,1,74.591,130.487ZM86.28,161.455,71.229,146.4a9.99,9.99,0,0,1-.627-13.484l6.406,6.406a4.85,4.85,0,0,0,.211,6.639l9.5,9.507h0a4.85,4.85,0,0,0,6.64.212l6.406,6.406A9.972,9.972,0,0,1,86.28,161.455Z" transform="translate(-66.027 -127.881)" fill="#f8f8f8"/>
</svg>
